<svg version="1.1" viewBox="0.0 0.0 960.0 720.0" fill="none" stroke="none" stroke-linecap="square" stroke-miterlimit="10" xmlns:xlink="http://www.w3.org/1999/xlink" xmlns="http://www.w3.org/2000/svg"><clipPath id="p.0"><path d="m0 0l960.0 0l0 720.0l-960.0 0l0 -720.0z" clip-rule="nonzero"/></clipPath><g clip-path="url(#p.0)"><path fill="#000000" fill-opacity="0.0" d="m0 0l960.0 0l0 720.0l-960.0 0z" fill-rule="evenodd"/><path fill="#cfe2f3" d="m104.96326 172.62204l33.102356 162.28873l33.910767 0l14.532806 -76.70343l12.1102295 -0.8083801l19.37796 79.12598l32.296585 0.80841064l34.719162 -166.32547l-18.56955 0l-33.104996 81.54593l-27.451431 -54.902878l-27.451447 -2.422577l-20.992126 68.62993l-29.874016 -90.427826z" fill-rule="evenodd"/><path stroke="#000000" stroke-width="1.0" stroke-linejoin="round" stroke-linecap="butt" d="m104.96326 172.62204l33.102356 162.28873l33.910767 0l14.532806 -76.70343l12.1102295 -0.8083801l19.37796 79.12598l32.296585 0.80841064l34.719162 -166.32547l-18.56955 0l-33.104996 81.54593l-27.451431 -54.902878l-27.451447 -2.422577l-20.992126 68.62993l-29.874016 -90.427826z" fill-rule="evenodd"/><path fill="#cfe2f3" d="m269.6719 331.67978l34.719177 -182.47243l51.671906 0l61.362213 192.16273l-37.94751 -1.6167908l-16.955383 -62.97638l-50.05774 1.6141663l-12.1102295 69.438324l-33.10501 -2.422577z" fill-rule="evenodd"/><path stroke="#000000" stroke-width="1.0" stroke-linejoin="round" stroke-linecap="butt" d="m269.6719 331.67978l34.719177 -182.47243l51.671906 0l61.362213 192.16273l-37.94751 -1.6167908l-16.955383 -62.97638l-50.05774 1.6141663l-12.1102295 69.438324l-33.10501 -2.422577z" fill-rule="evenodd"/><path fill="#cfe2f3" d="m326.18896 183.92651l-12.915985 54.094482l36.33069 -3.2283478z" fill-rule="evenodd"/><path stroke="#000000" stroke-width="1.0" stroke-linejoin="round" stroke-linecap="butt" d="m326.18896 183.92651l-12.915985 54.094482l36.33069 -3.2283478z" fill-rule="evenodd"/><path fill="#cfe2f3" d="m433.2306 337.33475l-60.21222 -168.35709l98.52771 -49.644325l53.95636 43.168068l-57.083008 -16.547333l-61.775543 29.497513l44.57132 147.49226l95.40106 -33.815033l-17.204224 39.570923z" fill-rule="evenodd"/><path stroke="#000000" stroke-width="1.0" stroke-linejoin="round" stroke-linecap="butt" d="m433.2306 337.33475l-60.21222 -168.35709l98.52771 -49.644325l53.95636 43.168068l-57.083008 -16.547333l-61.775543 29.497513l44.57132 147.49226l95.40106 -33.815033l-17.204224 39.570923z" fill-rule="evenodd"/><path fill="#cfe2f3" d="m690.32806 169.3937l-100.1181 -70.2441l-59.748047 96.88714l56.519714 138.87402l125.95276 -22.608917l1.6168213 -20.183746l-114.65094 22.606293l-31.490845 -121.11023l33.10504 -50.866135l77.509155 37.94751z" fill-rule="evenodd"/><path stroke="#000000" stroke-width="1.0" stroke-linejoin="round" stroke-linecap="butt" d="m690.32806 169.3937l-100.1181 -70.2441l-59.748047 96.88714l56.519714 138.87402l125.95276 -22.608917l1.6168213 -20.183746l-114.65094 22.606293l-31.490845 -121.11023l33.10504 -50.866135l77.509155 37.94751z" fill-rule="evenodd"/></g></svg>